<?xml version="1.0" encoding="UTF-8"?>
<svg id="Camada_2" data-name="Camada 2" xmlns="http://www.w3.org/2000/svg" viewBox="0 0 640 632.84">
  <defs>
    <style>
      .cls-1 {
        fill: #f0f0f0;
      }
    </style>
  </defs>
  <g id="Camada_1-2" data-name="Camada 1">
    <g>
      <path class="cls-1" d="m514.57,251.86c-.6,58.44-12.5,109.62-37.39,157.54-16.76,32.26-45.67,43.54-73.27,29.03-26.95-14.17-34.37-43.19-18.63-74.87,33.14-66.71,35.21-134.26,5.78-202.63-5.79-13.45-9.79-27.1,6.6-34.46,16.81-7.55,24.23,5.58,29.83,18.5,32.76,75.5,32.25,150.84-1.55,225.91-1.74,3.86-3.88,7.53-5.76,11.33-3.65,7.38-6.49,15.46,2.61,20.35,9.42,5.06,14.32-2.45,18-9.54,16.76-32.28,28.02-66.34,31.49-102.67,9.1-95.04-18.85-177.14-86.46-245.14-9.84-9.89-17.19-20.56-5.15-32.8,13.25-13.46,24.36-4.24,34.35,5.82,65.45,65.9,97.77,145.71,99.56,233.63Z"/>
      <path class="cls-1" d="m388.9,253.11c-.47,39.23-10.97,73.05-27.16,105.97-22.66,46.07,2.03,96.69,51.55,106.91,31.51,6.5,57.09-5.17,75.7-30.93,8.74-12.11,18.21-22.14,32.76-11.34,14.5,10.77,7.25,23.63-.85,35.32-33.41,48.18-100.07,62.73-150.69,32.86-52.06-30.72-71.95-94.7-44.79-149.26,18.85-37.86,28.44-76.35,19.86-118.63-6.81-33.55-21.68-62.54-45.6-86.84-10.45-10.62-21.54-21.75-6.7-35.6,14.71-13.74,25.94-1.58,35.86,8.69,39.1,40.48,58.19,89.34,60.05,142.85Z"/>
      <path class="cls-1" d="m123.77,397.18c.97-52.94,11.76-99.32,34.21-142.87,6.35-12.33,14.72-22.67,29.84-15.18,15.06,7.46,11.89,20.01,5.97,32.8-52.38,113.05-36.13,215.66,47.55,307.69,8.93,9.82,15.13,20.02,4.22,31.43-11.9,12.45-22.95,6.14-32.82-3.95-58.19-59.47-86.78-131.21-88.97-209.93Z"/>
      <path class="cls-1" d="m250.77,391.73c-.76-25.99,5.61-50.37,16.41-73.79,6.01-13.02,13.72-25.51,30.2-18.13,16.53,7.4,12.05,20.94,6.26,34.36-34.69,80.51,3.81,166.77,85.08,190.53,18.34,5.36,37.16,8.68,56.47,4.88,13.07-2.57,23.47,2,25.93,15.18,2.73,14.65-6.61,21.51-20.5,23.83-94.82,15.83-201.34-60.99-199.85-176.87Z"/>
      <path class="cls-1" d="m410.34,632.48c-106.31-4.37-206.38-95.23-219.37-198.9-1.2-9.56-1.68-18.32,6.67-25.03,6.12-4.92,12.94-5.54,19.85-2.29,10.44,4.92,11.74,15.28,13.57,24.91,5.07,26.71,14.83,51.53,30.25,73.85,34.35,49.71,81.36,79.03,141.6,86.57,4.2.53,8.4,1.03,12.59,1.66,13.15,1.99,24.01,7.43,21.97,22.77-2.03,15.25-13.81,17.95-27.12,16.46Z"/>
      <path class="cls-1" d="m262.09,257.35c.63,11.32-2.29,23.63-8.29,35.05-11.58,22.01-20.22,44.99-24.37,69.57-2.22,13.14-8.01,24.3-23.06,21.66-15.58-2.73-18.22-14.69-15.84-29.32,4.24-26.07,13.14-50.33,24.78-73.87,11.52-23.29,8.1-43.86-8.66-57.46-16.96-13.76-39.27-12.31-59.43,4.93-10.56,9.03-20.97,13.12-31.23,1.47-10.25-11.65-4.11-22.12,4.94-31.57,21.77-22.72,58-30.57,87.99-18.99,32.27,12.46,53.04,42.47,53.17,78.53Z"/>
      <path class="cls-1" d="m60.56,387.13c.91-9.59,2.21-25.03,3.89-40.43,1.4-12.81,8.04-22.13,21.59-20.97,13.34,1.13,19.8,11.09,18.01,24.05-9.26,67.11,3.28,130.37,32.09,191.05,5.63,11.86,3.42,22.63-9.28,28.35-13.4,6.04-21.51-2.16-27.02-13.04-25.95-51.23-37.72-105.92-39.28-169Z"/>
      <path class="cls-1" d="m575.95,263.43c1.29,40.76-6.37,80.16-19.11,118.69-4.47,13.53-10.7,26.77-28.2,20.64-17.23-6.03-14.37-19.9-9.57-33.64,14.44-41.26,19.45-83.87,17.58-127.41-.21-4.95-.64-9.92-.36-14.85.7-12.05,6.53-20.86,19.05-21.42,12.63-.57,19.61,7.74,20.42,19.81.85,12.67.19,25.45.19,38.18Z"/>
      <path class="cls-1" d="m325.37,250.12c.47,14.62-1.94,28.55-20.08,28.64-16.68.09-19.33-12.88-20.12-26.82-2.41-42.56-23.11-73.25-61.37-92.08-1.27-.62-2.54-1.25-3.85-1.78-12.79-5.19-20.75-14.01-14.92-27.97,5.96-14.26,18.23-13.35,30.65-8.71,49.48,18.51,88.96,75.15,89.69,128.7Z"/>
      <path class="cls-1" d="m.35,352.96c4.08-43.86,14.71-86.12,31.87-126.71,5.14-12.14,13.42-21.37,27.76-15.47,14.09,5.8,14.37,17.92,9.2,30.39-15.25,36.76-25.63,74.7-28.71,114.49-1.11,14.4-4.74,28.63-22.26,27.56-17.96-1.1-19.08-15.79-17.87-30.26Z"/>
      <path class="cls-1" d="m270.99.09c8.58,3.75,20.41,8.38,31.77,13.97,30.86,15.16,57.41,36.09,80.07,61.88,8.61,9.8,10.38,20.71-.19,29.95-9.62,8.41-20.07,6.27-28.21-2.82-26.52-29.58-58.7-50.68-95.33-65.49-10.62-4.3-15.38-12.49-12.54-23.77,2.65-10.49,10.41-14.48,24.42-13.72Z"/>
      <path class="cls-1" d="m179.27,47.55c27.34-1.07,52.68,5.01,77.24,14.6,11.58,4.53,19.81,12.42,14.8,26.11-4.88,13.35-16.2,15.7-27.98,11.13-34.1-13.22-68.69-15.04-104.23-7.57-12.68,2.67-23.37-1.49-26.11-15.06-2.8-13.86,6.61-20.83,18.64-23.88,15.81-4,31.9-6.45,47.63-5.33Z"/>
      <path class="cls-1" d="m627.07,365.79c-8.43,33.74-19.43,67.12-37.04,97.87-5.44,9.5-14.92,13.24-25.4,7.01-9.64-5.73-13.54-14.36-8.56-25.18,12.99-28.19,23.96-57.05,32.13-87.05,2.86-10.5,10.8-16.81,22.43-14.66,11.41,2.1,16.14,10.2,16.44,22Z"/>
      <path class="cls-1" d="m563.67,154.47c.3,12.44-3.82,19.63-12.99,22.33-9.79,2.88-19.18.31-23.14-9.6-9.15-22.87-17.73-46-25.34-69.42-3.21-9.86,2.12-17.97,11.67-22.23,9.17-4.09,17.59-.92,22.23,6.82,13.89,23.14,22.07,48.63,27.57,72.09Z"/>
      <path class="cls-1" d="m140.89,115.71c11.38.8,17.89,5.62,20.8,14.42,3.44,10.38-1.25,18.73-10.24,22.62-15.52,6.71-30.11,14.71-44.18,24.01-8.02,5.3-16.38,3.18-22.89-3.63-6.49-6.8-8.66-15.45-2.53-22.94,15.72-19.22,37.48-28.5,59.04-34.48Z"/>
      <path class="cls-1" d="m507.29,548.28c-7.63-.58-13.61-4.1-16.85-10.99-3.61-7.68-3.08-15.76,3.43-21.39,9.02-7.79,18.56-15.22,28.77-21.3,6.98-4.15,15.06-2.9,21.56,3,5.77,5.24,7.53,11.84,5.74,19.21-2.63,10.82-31.34,31.79-42.66,31.46Z"/>
      <path class="cls-1" d="m639.92,273.54c-.4,17.67-.75,34.42-21.34,34.41-16.16-.01-19.68-12.95-19.01-27.12.7-14.97-.09-32.24,20.36-33.05,17.9-.71,20.61,13.51,19.99,25.76Z"/>
      <path class="cls-1" d="m123.37,269.79c-1.63,22.11-13.3,36.66-26.84,35.12-12.65-1.44-18.54-9.47-17.73-21.85,1.27-19.38,13.23-33.8,26.72-32.44,12.97,1.3,17.8,9.71,17.85,19.17Z"/>
    </g>
  </g>
</svg>