<?xml version="1.0" encoding="UTF-8"?>
<svg id="Camada_2" data-name="Camada 2" xmlns="http://www.w3.org/2000/svg" viewBox="0 0 50.28 50.27">
  <g id="Camada_1-2" data-name="Camada 1">
    <g>
      <path d="m50.27,25.13c-.03,4.37.15,8.75-.5,13.09-1.01,6.81-6.15,11.37-13.07,11.74-7.71.41-15.42.41-23.13,0-7.36-.4-12.8-5.74-13.23-13.1-.46-7.84-.47-15.69,0-23.53C.8,5.95,6.21.69,13.62.3c7.67-.4,15.33-.4,23,0,7.58.38,12.96,5.77,13.39,13.34.22,3.83.24,7.66.27,11.5ZM25.3,4.74c-2.1,0-4.19-.07-6.29.02-2.09.09-4.18.28-6.25.52-4.06.48-7.06,3.4-7.44,7.4-.77,8.23-.81,16.47-.02,24.69.42,4.34,3.43,7.22,7.79,7.65,7.56.75,15.14.6,22.71.21,6.34-.32,9.03-4,9.36-8.67.58-8.06.76-16.12-.19-24.15-.46-3.9-3.48-6.63-7.4-7.16-4.08-.55-8.17-.57-12.28-.52Z"/>
      <path d="m12.2,25c.07-7.05,6.03-12.9,13.09-12.83,7.06.07,12.93,5.97,12.84,12.93-.1,7.14-6.02,13.09-12.93,13-7.22-.1-13.06-5.99-12.99-13.09Zm12.93-7.98c-4.57,0-8.09,3.56-8.07,8.17.01,4.43,3.65,8.04,8.09,8.04,4.55,0,8.13-3.57,8.12-8.13,0-4.6-3.52-8.09-8.14-8.08Z"/>
      <path d="m38.45,14.88c-1.63-.01-3.05-1.47-3.03-3.1.02-1.64,1.47-3.1,3.08-3.09,1.7.01,3.16,1.51,3.11,3.19-.04,1.62-1.51,3.02-3.16,3Z"/>
    </g>
  </g>
</svg>