<?xml version="1.0" encoding="UTF-8"?>
<svg id="Camada_2" data-name="Camada 2" xmlns="http://www.w3.org/2000/svg" viewBox="0 0 54.45 38.21">
  <g id="Camada_1-2" data-name="Camada 1">
    <path d="m27.28,38.1c-6.11.19-12.23.21-18.31-.45-5.83-.64-7.7-2.51-8.39-8.48C-.24,22.09-.21,15.01.78,7.95,1.41,3.51,3.82,1.18,8.27.79,19.4-.18,30.54-.22,41.69.46c1.91.12,3.82.2,5.72.54,3.33.59,5.39,2.55,6.01,5.81,1.02,5.37,1.21,10.8.91,16.25-.16,2.89-.24,5.79-.9,8.63-.75,3.21-2.75,5.06-5.99,5.7-2.47.49-4.97.58-7.45.66-4.23.14-8.47.04-12.71.04Zm8.1-18.73c-.16-.2-.22-.33-.32-.39-4.14-2.37-8.29-4.73-12.42-7.11-.73-.42-.83-.1-.83.54,0,4.55,0,9.1,0,13.65,0,.74.26.86.88.51,1.35-.78,2.72-1.53,4.08-2.3,2.86-1.62,5.71-3.25,8.61-4.89Z"/>
  </g>
</svg>