<?xml version="1.0" encoding="UTF-8"?>
<svg id="Camada_2" data-name="Camada 2" xmlns="http://www.w3.org/2000/svg" viewBox="0 0 55.22 55.07">
  <g id="Camada_1-2" data-name="Camada 1">
    <path d="m31.76,45.45c0-2.81.03-5.62-.02-8.43-.02-1.03.32-1.46,1.38-1.41,1.25.06,2.5-.04,3.75.03.97.06,1.34-.32,1.46-1.26.22-1.77.5-3.53.83-5.28.17-.89-.18-1.13-.97-1.12-1.7.01-3.39-.03-5.09,0-.95.02-1.39-.3-1.35-1.32.06-1.43,0-2.86.02-4.28.05-2.45,1.52-3.99,3.98-4.16.93-.06,1.87-.05,2.81-.03.75.02,1.05-.32,1.04-1.05-.01-1.47-.03-2.95,0-4.42.02-.79-.38-1.16-1.09-1.24-2.53-.29-5.05-.61-7.59-.08-4.14.86-6.99,4.19-7.34,8.44-.19,2.23-.24,4.45-.19,6.68.03,1.13-.42,1.5-1.49,1.46-1.43-.06-2.86.01-4.28-.02-.81-.02-1.25.22-1.23,1.13.04,1.83.03,3.66,0,5.49,0,.75.31,1.04,1.04,1.03,1.56-.02,3.12.03,4.69-.01.91-.02,1.27.33,1.26,1.25-.02,5.71-.03,11.42,0,17.14,0,1.05-.42,1.18-1.31,1.02C10.7,52.92,1.34,42.82.18,31.11-.97,19.46,3.46,10.32,13.32,4.05,23.98-2.73,38.45-.79,47.24,8.32c10.81,11.21,10.62,28.53-.5,39.47-3.81,3.75-8.42,6.11-13.66,7.2-.99.21-1.36-.04-1.34-1.11.06-2.81.02-5.62.02-8.43Z"/>
  </g>
</svg>