<?xml version="1.0" encoding="UTF-8"?>
<svg id="Camada_2" data-name="Camada 2" xmlns="http://www.w3.org/2000/svg" viewBox="0 0 49.96 50.23">
  <g id="Camada_1-2" data-name="Camada 1">
    <path d="m0,25.12C0,18.25,0,11.39,0,4.52,0,1.36,1.34,0,4.46,0c13.69,0,27.39,0,41.08,0,3.02,0,4.42,1.39,4.42,4.43,0,13.78,0,27.56,0,41.35,0,3.04-1.4,4.45-4.4,4.45-13.74,0-27.48,0-41.21,0-2.94,0-4.33-1.39-4.34-4.36-.01-6.91,0-13.83,0-20.74Zm27.01-2.73c-.37-.77-.27-1.36-.23-1.92.07-1-.32-1.35-1.31-1.31-1.47.06-2.94.04-4.41,0-.8-.02-1.13.3-1.11,1.1.03,1.2,0,2.41,0,3.61,0,5.8.03,11.59-.02,17.39-.01,1.25.4,1.65,1.62,1.57,1.38-.09,2.77-.08,4.14,0,1.08.06,1.38-.35,1.37-1.39-.05-3.39-.01-6.78-.02-10.17,0-1.12.05-2.23.34-3.32.53-2,2.09-3.1,4.3-3.06,1.91.03,3.09,1.07,3.6,3.12.18.7.23,1.4.23,2.12,0,3.79.03,7.58,0,11.37-.01.98.3,1.36,1.3,1.32,1.56-.06,3.12-.04,4.68,0,.81.02,1.12-.32,1.09-1.11-.13-5.25.35-10.53-.27-15.76-.7-5.85-4.24-7.4-9.05-7.21-2.6.1-4.64,1.39-6.25,3.65Zm-12.01,8.62c0-3.52-.02-7.04.01-10.56,0-.88-.22-1.32-1.2-1.28-1.56.06-3.12.04-4.68,0-.82-.02-1.22.22-1.22,1.13.02,7.13.02,14.26,0,21.39,0,.89.36,1.17,1.2,1.15,1.51-.04,3.03-.07,4.54,0,1.09.06,1.37-.39,1.36-1.4-.05-3.48-.02-6.95-.02-10.43Zm.55-19.42c0-2.24-1.81-4.11-4.03-4.16-2.13-.05-4.09,1.9-4.12,4.08-.03,2.26,1.92,4.27,4.11,4.23,2.21-.04,4.04-1.91,4.04-4.15Z"/>
  </g>
</svg>